0
SECTION
2
HEADER
9
$INSUNITS
70
4
0
ENDSEC
0
SECTION
2
TABLES
0
TABLE
2
LTYPE
0
LTYPE
72
65
70
64
2
CONTINUOUS
3
______
73
0
40
0
0
ENDTAB
0
TABLE
2
LAYER
0
ENDTAB
0
ENDSEC
0
SECTION
2
ENTITIES
0
LINE
8
0
10
79.8813942
20
-164.7755766
11
63.690525
21
-100.0121001
0
LINE
8
0
10
68.8955395
20
-90.4911674
11
155.7063364
21
-61.2193521
0
LINE
8
0
10
158.2624619
20
-60.8
11
212.7875381
21
-60.8
0
LINE
8
0
10
215.3436636
20
-61.2193521
11
302.1544605
21
-90.4911674
0
LINE
8
0
10
307.359475
20
-100.0121001
11
291.1686058
21
-164.7755766
0
LINE
8
0
10
285.9162881
20
-170.4317259
11
215.3219525
21
-193.7464341
0
LINE
8
0
10
212.8131302
20
-194.15
11
158.2368698
21
-194.15
0
LINE
8
0
10
155.7280475
20
-193.7464341
11
85.1337119
21
-170.4317259
0
ARC
8
0
10
71.4516651
20
-98.0718153
40
8
50
108.6336387
51
194.0362421
0
ARC
8
0
10
158.2624619
20
-68.8
40
8
50
90
51
108.6336387
0
ARC
8
0
10
212.7875381
20
-68.8
40
8
50
71.3663613
51
90
0
ARC
8
0
10
299.5983349
20
-98.0718153
40
8
50
345.9637579
51
71.3663613
0
ARC
8
0
10
283.4074658
20
-162.8352918
40
8
50
288.2764859
51
345.9637579
0
ARC
8
0
10
212.8131302
20
-186.15
40
8
50
270
51
288.2764859
0
ARC
8
0
10
158.2368698
20
-186.15
40
8
50
251.7235141
51
270
0
ARC
8
0
10
87.6425342
20
-162.8352918
40
8
50
194.0362421
51
251.7235141
0
LINE
8
0
10
90.475
20
-159.525
11
109.525
21
-159.525
0
LINE
8
0
10
109.525
20
-159.525
11
109.525
21
-145.525
0
LINE
8
0
10
90.475
20
-159.525
11
90.475
21
-102.375
0
LINE
8
0
10
109.475
20
-102.375
11
90.475
21
-102.375
0
LINE
8
0
10
109.525
20
-145.525
11
128.525
21
-145.525
0
LINE
8
0
10
128.525
20
-145.525
11
128.525
21
-135.525
0
LINE
8
0
10
128.475
20
-88.375
11
109.475
21
-88.375
0
LINE
8
0
10
109.475
20
-88.375
11
109.475
21
-102.375
0
LINE
8
0
10
128.525
20
-135.525
11
147.475
21
-135.525
0
LINE
8
0
10
147.525
20
-85.375
11
147.525
21
-78.375
0
LINE
8
0
10
147.525
20
-78.375
11
128.475
21
-78.375
0
LINE
8
0
10
128.475
20
-78.375
11
128.475
21
-88.375
0
LINE
8
0
10
147.475
20
-142.525
11
166.475
21
-142.525
0
LINE
8
0
10
147.475
20
-135.525
11
147.475
21
-142.525
0
LINE
8
0
10
166.525
20
-89.375
11
166.525
21
-85.375
0
LINE
8
0
10
166.525
20
-85.375
11
147.525
21
-85.375
0
LINE
8
0
10
166.475
20
-146.525
11
204.575
21
-146.525
0
LINE
8
0
10
166.475
20
-142.525
11
166.475
21
-146.525
0
LINE
8
0
10
166.525
20
-89.375
11
204.525
21
-89.375
0
LINE
8
0
10
166.475
20
-184.625
11
204.575
21
-184.625
0
LINE
8
0
10
204.575
20
-184.625
11
204.575
21
-165.575
0
LINE
8
0
10
166.475
20
-165.575
11
204.575
21
-165.575
0
LINE
8
0
10
261.525
20
-159.525
11
280.575
21
-159.525
0
LINE
8
0
10
280.575
20
-159.525
11
280.575
21
-102.375
0
LINE
8
0
10
261.525
20
-145.525
11
261.525
21
-159.525
0
LINE
8
0
10
280.575
20
-102.375
11
261.575
21
-102.375
0
LINE
8
0
10
242.525
20
-145.525
11
261.525
21
-145.525
0
LINE
8
0
10
242.525
20
-135.525
11
242.525
21
-145.525
0
LINE
8
0
10
261.575
20
-102.375
11
261.575
21
-88.375
0
LINE
8
0
10
261.575
20
-88.375
11
242.575
21
-88.375
0
LINE
8
0
10
223.575
20
-135.525
11
242.525
21
-135.525
0
LINE
8
0
10
242.575
20
-88.375
11
242.575
21
-78.375
0
LINE
8
0
10
242.575
20
-78.375
11
223.525
21
-78.375
0
LINE
8
0
10
223.525
20
-78.375
11
223.525
21
-85.375
0
LINE
8
0
10
204.575
20
-142.525
11
223.575
21
-142.525
0
LINE
8
0
10
223.575
20
-142.525
11
223.575
21
-135.525
0
LINE
8
0
10
223.525
20
-85.375
11
204.525
21
-85.375
0
LINE
8
0
10
204.525
20
-85.375
11
204.525
21
-89.375
0
LINE
8
0
10
204.575
20
-146.525
11
204.575
21
-142.525
0
LINE
8
0
10
166.475
20
-165.575
11
166.475
21
-184.625
0
ENDSEC
0
EOF