0
SECTION
2
HEADER
9
$INSUNITS
70
4
0
ENDSEC
0
SECTION
2
TABLES
0
TABLE
2
LTYPE
0
LTYPE
72
65
70
64
2
CONTINUOUS
3
______
73
0
40
0
0
ENDTAB
0
TABLE
2
LAYER
0
ENDTAB
0
ENDSEC
0
SECTION
2
ENTITIES
0
LINE
8
0
10
79.8813942
20
-164.7755766
11
63.690525
21
-100.0121001
0
LINE
8
0
10
68.8955395
20
-90.4911674
11
155.7063364
21
-61.2193521
0
LINE
8
0
10
158.2624619
20
-60.8
11
212.7875381
21
-60.8
0
LINE
8
0
10
215.3436636
20
-61.2193521
11
302.1544605
21
-90.4911674
0
LINE
8
0
10
307.359475
20
-100.0121001
11
291.1686058
21
-164.7755766
0
LINE
8
0
10
285.9162881
20
-170.4317259
11
215.3219525
21
-193.7464341
0
LINE
8
0
10
212.8131302
20
-194.15
11
158.2368698
21
-194.15
0
LINE
8
0
10
155.7280475
20
-193.7464341
11
85.1337119
21
-170.4317259
0
ARC
8
0
10
71.4516651
20
-98.0718153
40
8
50
108.6336387
51
194.0362421
0
ARC
8
0
10
158.2624619
20
-68.8
40
8
50
90
51
108.6336387
0
ARC
8
0
10
212.7875381
20
-68.8
40
8
50
71.3663613
51
90
0
ARC
8
0
10
299.5983349
20
-98.0718153
40
8
50
345.9637579
51
71.3663613
0
ARC
8
0
10
283.4074658
20
-162.8352918
40
8
50
288.2764859
51
345.9637579
0
ARC
8
0
10
212.8131302
20
-186.15
40
8
50
270
51
288.2764859
0
ARC
8
0
10
158.2368698
20
-186.15
40
8
50
251.7235141
51
270
0
ARC
8
0
10
87.6425342
20
-162.8352918
40
8
50
194.0362421
51
251.7235141
0
LINE
8
0
10
90.57025
20
-159.42975
11
109.42975
21
-159.42975
0
LINE
8
0
10
109.42975
20
-159.42975
11
109.42975
21
-140.57025
0
LINE
8
0
10
109.42975
20
-140.57025
11
90.57025
21
-140.57025
0
LINE
8
0
10
90.57025
20
-140.57025
11
90.57025
21
-159.42975
0
LINE
8
0
10
90.57025
20
-140.37975
11
109.42975
21
-140.37975
0
LINE
8
0
10
109.42975
20
-140.37975
11
109.42975
21
-121.52025
0
LINE
8
0
10
109.42975
20
-121.52025
11
90.57025
21
-121.52025
0
LINE
8
0
10
90.57025
20
-121.52025
11
90.57025
21
-140.37975
0
LINE
8
0
10
90.57025
20
-121.32975
11
109.42975
21
-121.32975
0
LINE
8
0
10
109.42975
20
-121.32975
11
109.42975
21
-102.47025
0
LINE
8
0
10
109.42975
20
-102.47025
11
90.57025
21
-102.47025
0
LINE
8
0
10
90.57025
20
-102.47025
11
90.57025
21
-121.32975
0
LINE
8
0
10
109.57025
20
-145.42975
11
128.42975
21
-145.42975
0
LINE
8
0
10
128.42975
20
-145.42975
11
128.42975
21
-126.57025
0
LINE
8
0
10
128.42975
20
-126.57025
11
109.57025
21
-126.57025
0
LINE
8
0
10
109.57025
20
-126.57025
11
109.57025
21
-145.42975
0
LINE
8
0
10
109.57025
20
-126.37975
11
128.42975
21
-126.37975
0
LINE
8
0
10
128.42975
20
-126.37975
11
128.42975
21
-107.52025
0
LINE
8
0
10
128.42975
20
-107.52025
11
109.57025
21
-107.52025
0
LINE
8
0
10
109.57025
20
-107.52025
11
109.57025
21
-126.37975
0
LINE
8
0
10
109.57025
20
-107.32975
11
128.42975
21
-107.32975
0
LINE
8
0
10
128.42975
20
-107.32975
11
128.42975
21
-88.47025
0
LINE
8
0
10
128.42975
20
-88.47025
11
109.57025
21
-88.47025
0
LINE
8
0
10
109.57025
20
-88.47025
11
109.57025
21
-107.32975
0
LINE
8
0
10
128.57025
20
-135.42975
11
147.42975
21
-135.42975
0
LINE
8
0
10
147.42975
20
-135.42975
11
147.42975
21
-116.57025
0
LINE
8
0
10
147.42975
20
-116.57025
11
128.57025
21
-116.57025
0
LINE
8
0
10
128.57025
20
-116.57025
11
128.57025
21
-135.42975
0
LINE
8
0
10
128.57025
20
-116.37975
11
147.42975
21
-116.37975
0
LINE
8
0
10
147.42975
20
-116.37975
11
147.42975
21
-97.52025
0
LINE
8
0
10
147.42975
20
-97.52025
11
128.57025
21
-97.52025
0
LINE
8
0
10
128.57025
20
-97.52025
11
128.57025
21
-116.37975
0
LINE
8
0
10
128.57025
20
-97.32975
11
147.42975
21
-97.32975
0
LINE
8
0
10
147.42975
20
-97.32975
11
147.42975
21
-78.47025
0
LINE
8
0
10
147.42975
20
-78.47025
11
128.57025
21
-78.47025
0
LINE
8
0
10
128.57025
20
-78.47025
11
128.57025
21
-97.32975
0
LINE
8
0
10
147.57025
20
-142.42975
11
166.42975
21
-142.42975
0
LINE
8
0
10
166.42975
20
-142.42975
11
166.42975
21
-123.57025
0
LINE
8
0
10
166.42975
20
-123.57025
11
147.57025
21
-123.57025
0
LINE
8
0
10
147.57025
20
-123.57025
11
147.57025
21
-142.42975
0
LINE
8
0
10
147.57025
20
-123.37975
11
166.42975
21
-123.37975
0
LINE
8
0
10
166.42975
20
-123.37975
11
166.42975
21
-104.52025
0
LINE
8
0
10
166.42975
20
-104.52025
11
147.57025
21
-104.52025
0
LINE
8
0
10
147.57025
20
-104.52025
11
147.57025
21
-123.37975
0
LINE
8
0
10
147.57025
20
-104.32975
11
166.42975
21
-104.32975
0
LINE
8
0
10
166.42975
20
-104.32975
11
166.42975
21
-85.47025
0
LINE
8
0
10
166.42975
20
-85.47025
11
147.57025
21
-85.47025
0
LINE
8
0
10
147.57025
20
-85.47025
11
147.57025
21
-104.32975
0
LINE
8
0
10
166.57025
20
-146.42975
11
185.42975
21
-146.42975
0
LINE
8
0
10
185.42975
20
-146.42975
11
185.42975
21
-127.57025
0
LINE
8
0
10
185.42975
20
-127.57025
11
166.57025
21
-127.57025
0
LINE
8
0
10
166.57025
20
-127.57025
11
166.57025
21
-146.42975
0
LINE
8
0
10
166.57025
20
-127.37975
11
185.42975
21
-127.37975
0
LINE
8
0
10
185.42975
20
-127.37975
11
185.42975
21
-108.52025
0
LINE
8
0
10
185.42975
20
-108.52025
11
166.57025
21
-108.52025
0
LINE
8
0
10
166.57025
20
-108.52025
11
166.57025
21
-127.37975
0
LINE
8
0
10
166.57025
20
-108.32975
11
185.42975
21
-108.32975
0
LINE
8
0
10
185.42975
20
-108.32975
11
185.42975
21
-89.47025
0
LINE
8
0
10
185.42975
20
-89.47025
11
166.57025
21
-89.47025
0
LINE
8
0
10
166.57025
20
-89.47025
11
166.57025
21
-108.32975
0
LINE
8
0
10
185.62025
20
-184.52975
11
204.47975
21
-184.52975
0
LINE
8
0
10
204.47975
20
-184.52975
11
204.47975
21
-165.67025
0
LINE
8
0
10
204.47975
20
-165.67025
11
185.62025
21
-165.67025
0
LINE
8
0
10
185.62025
20
-165.67025
11
185.62025
21
-184.52975
0
LINE
8
0
10
261.62025
20
-159.42975
11
280.47975
21
-159.42975
0
LINE
8
0
10
280.47975
20
-159.42975
11
280.47975
21
-140.57025
0
LINE
8
0
10
280.47975
20
-140.57025
11
261.62025
21
-140.57025
0
LINE
8
0
10
261.62025
20
-140.57025
11
261.62025
21
-159.42975
0
LINE
8
0
10
261.62025
20
-140.37975
11
280.47975
21
-140.37975
0
LINE
8
0
10
280.47975
20
-140.37975
11
280.47975
21
-121.52025
0
LINE
8
0
10
280.47975
20
-121.52025
11
261.62025
21
-121.52025
0
LINE
8
0
10
261.62025
20
-121.52025
11
261.62025
21
-140.37975
0
LINE
8
0
10
261.62025
20
-121.32975
11
280.47975
21
-121.32975
0
LINE
8
0
10
280.47975
20
-121.32975
11
280.47975
21
-102.47025
0
LINE
8
0
10
280.47975
20
-102.47025
11
261.62025
21
-102.47025
0
LINE
8
0
10
261.62025
20
-102.47025
11
261.62025
21
-121.32975
0
LINE
8
0
10
242.62025
20
-145.42975
11
261.47975
21
-145.42975
0
LINE
8
0
10
261.47975
20
-145.42975
11
261.47975
21
-126.57025
0
LINE
8
0
10
261.47975
20
-126.57025
11
242.62025
21
-126.57025
0
LINE
8
0
10
242.62025
20
-126.57025
11
242.62025
21
-145.42975
0
LINE
8
0
10
242.62025
20
-126.37975
11
261.47975
21
-126.37975
0
LINE
8
0
10
261.47975
20
-126.37975
11
261.47975
21
-107.52025
0
LINE
8
0
10
261.47975
20
-107.52025
11
242.62025
21
-107.52025
0
LINE
8
0
10
242.62025
20
-107.52025
11
242.62025
21
-126.37975
0
LINE
8
0
10
242.62025
20
-107.32975
11
261.47975
21
-107.32975
0
LINE
8
0
10
261.47975
20
-107.32975
11
261.47975
21
-88.47025
0
LINE
8
0
10
261.47975
20
-88.47025
11
242.62025
21
-88.47025
0
LINE
8
0
10
242.62025
20
-88.47025
11
242.62025
21
-107.32975
0
LINE
8
0
10
223.62025
20
-135.42975
11
242.47975
21
-135.42975
0
LINE
8
0
10
242.47975
20
-135.42975
11
242.47975
21
-116.57025
0
LINE
8
0
10
242.47975
20
-116.57025
11
223.62025
21
-116.57025
0
LINE
8
0
10
223.62025
20
-116.57025
11
223.62025
21
-135.42975
0
LINE
8
0
10
223.62025
20
-116.37975
11
242.47975
21
-116.37975
0
LINE
8
0
10
242.47975
20
-116.37975
11
242.47975
21
-97.52025
0
LINE
8
0
10
242.47975
20
-97.52025
11
223.62025
21
-97.52025
0
LINE
8
0
10
223.62025
20
-97.52025
11
223.62025
21
-116.37975
0
LINE
8
0
10
223.62025
20
-97.32975
11
242.47975
21
-97.32975
0
LINE
8
0
10
242.47975
20
-97.32975
11
242.47975
21
-78.47025
0
LINE
8
0
10
242.47975
20
-78.47025
11
223.62025
21
-78.47025
0
LINE
8
0
10
223.62025
20
-78.47025
11
223.62025
21
-97.32975
0
LINE
8
0
10
204.62025
20
-142.42975
11
223.47975
21
-142.42975
0
LINE
8
0
10
223.47975
20
-142.42975
11
223.47975
21
-123.57025
0
LINE
8
0
10
223.47975
20
-123.57025
11
204.62025
21
-123.57025
0
LINE
8
0
10
204.62025
20
-123.57025
11
204.62025
21
-142.42975
0
LINE
8
0
10
204.62025
20
-123.37975
11
223.47975
21
-123.37975
0
LINE
8
0
10
223.47975
20
-123.37975
11
223.47975
21
-104.52025
0
LINE
8
0
10
223.47975
20
-104.52025
11
204.62025
21
-104.52025
0
LINE
8
0
10
204.62025
20
-104.52025
11
204.62025
21
-123.37975
0
LINE
8
0
10
204.62025
20
-104.32975
11
223.47975
21
-104.32975
0
LINE
8
0
10
223.47975
20
-104.32975
11
223.47975
21
-85.47025
0
LINE
8
0
10
223.47975
20
-85.47025
11
204.62025
21
-85.47025
0
LINE
8
0
10
204.62025
20
-85.47025
11
204.62025
21
-104.32975
0
LINE
8
0
10
185.62025
20
-146.42975
11
204.47975
21
-146.42975
0
LINE
8
0
10
204.47975
20
-146.42975
11
204.47975
21
-127.57025
0
LINE
8
0
10
204.47975
20
-127.57025
11
185.62025
21
-127.57025
0
LINE
8
0
10
185.62025
20
-127.57025
11
185.62025
21
-146.42975
0
LINE
8
0
10
185.62025
20
-127.37975
11
204.47975
21
-127.37975
0
LINE
8
0
10
204.47975
20
-127.37975
11
204.47975
21
-108.52025
0
LINE
8
0
10
204.47975
20
-108.52025
11
185.62025
21
-108.52025
0
LINE
8
0
10
185.62025
20
-108.52025
11
185.62025
21
-127.37975
0
LINE
8
0
10
185.62025
20
-108.32975
11
204.47975
21
-108.32975
0
LINE
8
0
10
204.47975
20
-108.32975
11
204.47975
21
-89.47025
0
LINE
8
0
10
204.47975
20
-89.47025
11
185.62025
21
-89.47025
0
LINE
8
0
10
185.62025
20
-89.47025
11
185.62025
21
-108.32975
0
LINE
8
0
10
166.57025
20
-184.52975
11
185.42975
21
-184.52975
0
LINE
8
0
10
185.42975
20
-184.52975
11
185.42975
21
-165.67025
0
LINE
8
0
10
185.42975
20
-165.67025
11
166.57025
21
-165.67025
0
LINE
8
0
10
166.57025
20
-165.67025
11
166.57025
21
-184.52975
0
ENDSEC
0
EOF