0
SECTION
2
HEADER
9
$INSUNITS
70
4
0
ENDSEC
0
SECTION
2
TABLES
0
TABLE
2
LTYPE
0
LTYPE
72
65
70
64
2
CONTINUOUS
3
______
73
0
40
0
0
ENDTAB
0
TABLE
2
LAYER
0
ENDTAB
0
ENDSEC
0
SECTION
2
ENTITIES
0
LINE
8
0
10
90.57025
20
-159.42975
11
109.42975
21
-159.42975
0
LINE
8
0
10
109.42975
20
-159.42975
11
109.42975
21
-140.57025
0
LINE
8
0
10
109.42975
20
-140.57025
11
90.57025
21
-140.57025
0
LINE
8
0
10
90.57025
20
-140.57025
11
90.57025
21
-159.42975
0
LINE
8
0
10
90.57025
20
-140.37975
11
109.42975
21
-140.37975
0
LINE
8
0
10
109.42975
20
-140.37975
11
109.42975
21
-121.52025
0
LINE
8
0
10
109.42975
20
-121.52025
11
90.57025
21
-121.52025
0
LINE
8
0
10
90.57025
20
-121.52025
11
90.57025
21
-140.37975
0
LINE
8
0
10
90.57025
20
-121.32975
11
109.42975
21
-121.32975
0
LINE
8
0
10
109.42975
20
-121.32975
11
109.42975
21
-102.47025
0
LINE
8
0
10
109.42975
20
-102.47025
11
90.57025
21
-102.47025
0
LINE
8
0
10
90.57025
20
-102.47025
11
90.57025
21
-121.32975
0
LINE
8
0
10
109.57025
20
-145.42975
11
128.42975
21
-145.42975
0
LINE
8
0
10
128.42975
20
-145.42975
11
128.42975
21
-126.57025
0
LINE
8
0
10
128.42975
20
-126.57025
11
109.57025
21
-126.57025
0
LINE
8
0
10
109.57025
20
-126.57025
11
109.57025
21
-145.42975
0
LINE
8
0
10
109.57025
20
-126.37975
11
128.42975
21
-126.37975
0
LINE
8
0
10
128.42975
20
-126.37975
11
128.42975
21
-107.52025
0
LINE
8
0
10
128.42975
20
-107.52025
11
109.57025
21
-107.52025
0
LINE
8
0
10
109.57025
20
-107.52025
11
109.57025
21
-126.37975
0
LINE
8
0
10
109.57025
20
-107.32975
11
128.42975
21
-107.32975
0
LINE
8
0
10
128.42975
20
-107.32975
11
128.42975
21
-88.47025
0
LINE
8
0
10
128.42975
20
-88.47025
11
109.57025
21
-88.47025
0
LINE
8
0
10
109.57025
20
-88.47025
11
109.57025
21
-107.32975
0
LINE
8
0
10
128.57025
20
-135.42975
11
147.42975
21
-135.42975
0
LINE
8
0
10
147.42975
20
-135.42975
11
147.42975
21
-116.57025
0
LINE
8
0
10
147.42975
20
-116.57025
11
128.57025
21
-116.57025
0
LINE
8
0
10
128.57025
20
-116.57025
11
128.57025
21
-135.42975
0
LINE
8
0
10
128.57025
20
-116.37975
11
147.42975
21
-116.37975
0
LINE
8
0
10
147.42975
20
-116.37975
11
147.42975
21
-97.52025
0
LINE
8
0
10
147.42975
20
-97.52025
11
128.57025
21
-97.52025
0
LINE
8
0
10
128.57025
20
-97.52025
11
128.57025
21
-116.37975
0
LINE
8
0
10
128.57025
20
-97.32975
11
147.42975
21
-97.32975
0
LINE
8
0
10
147.42975
20
-97.32975
11
147.42975
21
-78.47025
0
LINE
8
0
10
147.42975
20
-78.47025
11
128.57025
21
-78.47025
0
LINE
8
0
10
128.57025
20
-78.47025
11
128.57025
21
-97.32975
0
LINE
8
0
10
147.57025
20
-142.42975
11
166.42975
21
-142.42975
0
LINE
8
0
10
166.42975
20
-142.42975
11
166.42975
21
-123.57025
0
LINE
8
0
10
166.42975
20
-123.57025
11
147.57025
21
-123.57025
0
LINE
8
0
10
147.57025
20
-123.57025
11
147.57025
21
-142.42975
0
LINE
8
0
10
147.57025
20
-123.37975
11
166.42975
21
-123.37975
0
LINE
8
0
10
166.42975
20
-123.37975
11
166.42975
21
-104.52025
0
LINE
8
0
10
166.42975
20
-104.52025
11
147.57025
21
-104.52025
0
LINE
8
0
10
147.57025
20
-104.52025
11
147.57025
21
-123.37975
0
LINE
8
0
10
147.57025
20
-104.32975
11
166.42975
21
-104.32975
0
LINE
8
0
10
166.42975
20
-104.32975
11
166.42975
21
-85.47025
0
LINE
8
0
10
166.42975
20
-85.47025
11
147.57025
21
-85.47025
0
LINE
8
0
10
147.57025
20
-85.47025
11
147.57025
21
-104.32975
0
LINE
8
0
10
166.57025
20
-146.42975
11
185.42975
21
-146.42975
0
LINE
8
0
10
185.42975
20
-146.42975
11
185.42975
21
-127.57025
0
LINE
8
0
10
185.42975
20
-127.57025
11
166.57025
21
-127.57025
0
LINE
8
0
10
166.57025
20
-127.57025
11
166.57025
21
-146.42975
0
LINE
8
0
10
166.57025
20
-127.37975
11
185.42975
21
-127.37975
0
LINE
8
0
10
185.42975
20
-127.37975
11
185.42975
21
-108.52025
0
LINE
8
0
10
185.42975
20
-108.52025
11
166.57025
21
-108.52025
0
LINE
8
0
10
166.57025
20
-108.52025
11
166.57025
21
-127.37975
0
LINE
8
0
10
166.57025
20
-108.32975
11
185.42975
21
-108.32975
0
LINE
8
0
10
185.42975
20
-108.32975
11
185.42975
21
-89.47025
0
LINE
8
0
10
185.42975
20
-89.47025
11
166.57025
21
-89.47025
0
LINE
8
0
10
166.57025
20
-89.47025
11
166.57025
21
-108.32975
0
LINE
8
0
10
185.62025
20
-184.52975
11
204.47975
21
-184.52975
0
LINE
8
0
10
204.47975
20
-184.52975
11
204.47975
21
-165.67025
0
LINE
8
0
10
204.47975
20
-165.67025
11
185.62025
21
-165.67025
0
LINE
8
0
10
185.62025
20
-165.67025
11
185.62025
21
-184.52975
0
LINE
8
0
10
261.62025
20
-159.42975
11
280.47975
21
-159.42975
0
LINE
8
0
10
280.47975
20
-159.42975
11
280.47975
21
-140.57025
0
LINE
8
0
10
280.47975
20
-140.57025
11
261.62025
21
-140.57025
0
LINE
8
0
10
261.62025
20
-140.57025
11
261.62025
21
-159.42975
0
LINE
8
0
10
261.62025
20
-140.37975
11
280.47975
21
-140.37975
0
LINE
8
0
10
280.47975
20
-140.37975
11
280.47975
21
-121.52025
0
LINE
8
0
10
280.47975
20
-121.52025
11
261.62025
21
-121.52025
0
LINE
8
0
10
261.62025
20
-121.52025
11
261.62025
21
-140.37975
0
LINE
8
0
10
261.62025
20
-121.32975
11
280.47975
21
-121.32975
0
LINE
8
0
10
280.47975
20
-121.32975
11
280.47975
21
-102.47025
0
LINE
8
0
10
280.47975
20
-102.47025
11
261.62025
21
-102.47025
0
LINE
8
0
10
261.62025
20
-102.47025
11
261.62025
21
-121.32975
0
LINE
8
0
10
242.62025
20
-145.42975
11
261.47975
21
-145.42975
0
LINE
8
0
10
261.47975
20
-145.42975
11
261.47975
21
-126.57025
0
LINE
8
0
10
261.47975
20
-126.57025
11
242.62025
21
-126.57025
0
LINE
8
0
10
242.62025
20
-126.57025
11
242.62025
21
-145.42975
0
LINE
8
0
10
242.62025
20
-126.37975
11
261.47975
21
-126.37975
0
LINE
8
0
10
261.47975
20
-126.37975
11
261.47975
21
-107.52025
0
LINE
8
0
10
261.47975
20
-107.52025
11
242.62025
21
-107.52025
0
LINE
8
0
10
242.62025
20
-107.52025
11
242.62025
21
-126.37975
0
LINE
8
0
10
242.62025
20
-107.32975
11
261.47975
21
-107.32975
0
LINE
8
0
10
261.47975
20
-107.32975
11
261.47975
21
-88.47025
0
LINE
8
0
10
261.47975
20
-88.47025
11
242.62025
21
-88.47025
0
LINE
8
0
10
242.62025
20
-88.47025
11
242.62025
21
-107.32975
0
LINE
8
0
10
223.62025
20
-135.42975
11
242.47975
21
-135.42975
0
LINE
8
0
10
242.47975
20
-135.42975
11
242.47975
21
-116.57025
0
LINE
8
0
10
242.47975
20
-116.57025
11
223.62025
21
-116.57025
0
LINE
8
0
10
223.62025
20
-116.57025
11
223.62025
21
-135.42975
0
LINE
8
0
10
223.62025
20
-116.37975
11
242.47975
21
-116.37975
0
LINE
8
0
10
242.47975
20
-116.37975
11
242.47975
21
-97.52025
0
LINE
8
0
10
242.47975
20
-97.52025
11
223.62025
21
-97.52025
0
LINE
8
0
10
223.62025
20
-97.52025
11
223.62025
21
-116.37975
0
LINE
8
0
10
223.62025
20
-97.32975
11
242.47975
21
-97.32975
0
LINE
8
0
10
242.47975
20
-97.32975
11
242.47975
21
-78.47025
0
LINE
8
0
10
242.47975
20
-78.47025
11
223.62025
21
-78.47025
0
LINE
8
0
10
223.62025
20
-78.47025
11
223.62025
21
-97.32975
0
LINE
8
0
10
204.62025
20
-142.42975
11
223.47975
21
-142.42975
0
LINE
8
0
10
223.47975
20
-142.42975
11
223.47975
21
-123.57025
0
LINE
8
0
10
223.47975
20
-123.57025
11
204.62025
21
-123.57025
0
LINE
8
0
10
204.62025
20
-123.57025
11
204.62025
21
-142.42975
0
LINE
8
0
10
204.62025
20
-123.37975
11
223.47975
21
-123.37975
0
LINE
8
0
10
223.47975
20
-123.37975
11
223.47975
21
-104.52025
0
LINE
8
0
10
223.47975
20
-104.52025
11
204.62025
21
-104.52025
0
LINE
8
0
10
204.62025
20
-104.52025
11
204.62025
21
-123.37975
0
LINE
8
0
10
204.62025
20
-104.32975
11
223.47975
21
-104.32975
0
LINE
8
0
10
223.47975
20
-104.32975
11
223.47975
21
-85.47025
0
LINE
8
0
10
223.47975
20
-85.47025
11
204.62025
21
-85.47025
0
LINE
8
0
10
204.62025
20
-85.47025
11
204.62025
21
-104.32975
0
LINE
8
0
10
185.62025
20
-146.42975
11
204.47975
21
-146.42975
0
LINE
8
0
10
204.47975
20
-146.42975
11
204.47975
21
-127.57025
0
LINE
8
0
10
204.47975
20
-127.57025
11
185.62025
21
-127.57025
0
LINE
8
0
10
185.62025
20
-127.57025
11
185.62025
21
-146.42975
0
LINE
8
0
10
185.62025
20
-127.37975
11
204.47975
21
-127.37975
0
LINE
8
0
10
204.47975
20
-127.37975
11
204.47975
21
-108.52025
0
LINE
8
0
10
204.47975
20
-108.52025
11
185.62025
21
-108.52025
0
LINE
8
0
10
185.62025
20
-108.52025
11
185.62025
21
-127.37975
0
LINE
8
0
10
185.62025
20
-108.32975
11
204.47975
21
-108.32975
0
LINE
8
0
10
204.47975
20
-108.32975
11
204.47975
21
-89.47025
0
LINE
8
0
10
204.47975
20
-89.47025
11
185.62025
21
-89.47025
0
LINE
8
0
10
185.62025
20
-89.47025
11
185.62025
21
-108.32975
0
LINE
8
0
10
166.57025
20
-184.52975
11
185.42975
21
-184.52975
0
LINE
8
0
10
185.42975
20
-184.52975
11
185.42975
21
-165.67025
0
LINE
8
0
10
185.42975
20
-165.67025
11
166.57025
21
-165.67025
0
LINE
8
0
10
166.57025
20
-165.67025
11
166.57025
21
-184.52975
0
ENDSEC
0
EOF