0
SECTION
2
HEADER
9
$INSUNITS
70
4
0
ENDSEC
0
SECTION
2
TABLES
0
TABLE
2
LTYPE
0
LTYPE
72
65
70
64
2
CONTINUOUS
3
______
73
0
40
0
0
ENDTAB
0
TABLE
2
LAYER
0
ENDTAB
0
ENDSEC
0
SECTION
2
ENTITIES
0
LINE
8
0
10
90.475
20
-159.525
11
109.525
21
-159.525
0
LINE
8
0
10
109.525
20
-159.525
11
109.525
21
-145.525
0
LINE
8
0
10
90.475
20
-159.525
11
90.475
21
-102.375
0
LINE
8
0
10
109.475
20
-102.375
11
90.475
21
-102.375
0
LINE
8
0
10
109.525
20
-145.525
11
128.525
21
-145.525
0
LINE
8
0
10
128.525
20
-145.525
11
128.525
21
-135.525
0
LINE
8
0
10
128.475
20
-88.375
11
109.475
21
-88.375
0
LINE
8
0
10
109.475
20
-88.375
11
109.475
21
-102.375
0
LINE
8
0
10
128.525
20
-135.525
11
147.475
21
-135.525
0
LINE
8
0
10
147.525
20
-85.375
11
147.525
21
-78.375
0
LINE
8
0
10
147.525
20
-78.375
11
128.475
21
-78.375
0
LINE
8
0
10
128.475
20
-78.375
11
128.475
21
-88.375
0
LINE
8
0
10
147.475
20
-142.525
11
166.475
21
-142.525
0
LINE
8
0
10
147.475
20
-135.525
11
147.475
21
-142.525
0
LINE
8
0
10
166.525
20
-89.375
11
166.525
21
-85.375
0
LINE
8
0
10
166.525
20
-85.375
11
147.525
21
-85.375
0
LINE
8
0
10
166.475
20
-146.525
11
204.575
21
-146.525
0
LINE
8
0
10
166.475
20
-142.525
11
166.475
21
-146.525
0
LINE
8
0
10
166.525
20
-89.375
11
204.525
21
-89.375
0
LINE
8
0
10
166.475
20
-184.625
11
204.575
21
-184.625
0
LINE
8
0
10
204.575
20
-184.625
11
204.575
21
-165.575
0
LINE
8
0
10
166.475
20
-165.575
11
204.575
21
-165.575
0
LINE
8
0
10
261.525
20
-159.525
11
280.575
21
-159.525
0
LINE
8
0
10
280.575
20
-159.525
11
280.575
21
-102.375
0
LINE
8
0
10
261.525
20
-145.525
11
261.525
21
-159.525
0
LINE
8
0
10
280.575
20
-102.375
11
261.575
21
-102.375
0
LINE
8
0
10
242.525
20
-145.525
11
261.525
21
-145.525
0
LINE
8
0
10
242.525
20
-135.525
11
242.525
21
-145.525
0
LINE
8
0
10
261.575
20
-102.375
11
261.575
21
-88.375
0
LINE
8
0
10
261.575
20
-88.375
11
242.575
21
-88.375
0
LINE
8
0
10
223.575
20
-135.525
11
242.525
21
-135.525
0
LINE
8
0
10
242.575
20
-88.375
11
242.575
21
-78.375
0
LINE
8
0
10
242.575
20
-78.375
11
223.525
21
-78.375
0
LINE
8
0
10
223.525
20
-78.375
11
223.525
21
-85.375
0
LINE
8
0
10
204.575
20
-142.525
11
223.575
21
-142.525
0
LINE
8
0
10
223.575
20
-142.525
11
223.575
21
-135.525
0
LINE
8
0
10
223.525
20
-85.375
11
204.525
21
-85.375
0
LINE
8
0
10
204.525
20
-85.375
11
204.525
21
-89.375
0
LINE
8
0
10
204.575
20
-146.525
11
204.575
21
-142.525
0
LINE
8
0
10
166.475
20
-165.575
11
166.475
21
-184.625
0
ENDSEC
0
EOF