0
SECTION
2
HEADER
9
$INSUNITS
70
4
0
ENDSEC
0
SECTION
2
TABLES
0
TABLE
2
LTYPE
0
LTYPE
72
65
70
64
2
CONTINUOUS
3
______
73
0
40
0
0
ENDTAB
0
TABLE
2
LAYER
0
ENDTAB
0
ENDSEC
0
SECTION
2
ENTITIES
0
LINE
8
0
10
79.728557
20
-164.1642281
11
63.690525
21
-100.0121001
0
LINE
8
0
10
68.8955395
20
-90.4911674
11
155.7063364
21
-61.2193521
0
LINE
8
0
10
158.2624619
20
-60.8
11
212.7875381
21
-60.8
0
LINE
8
0
10
215.3436636
20
-61.2193521
11
302.1544605
21
-90.4911674
0
LINE
8
0
10
307.359475
20
-100.0121001
11
291.321443
21
-164.1642281
0
LINE
8
0
10
285.1663973
20
-170.061064
11
214.8947884
21
-184.4621207
0
LINE
8
0
10
213.288694
20
-184.625
11
157.761306
21
-184.625
0
LINE
8
0
10
156.1552116
20
-184.4621207
11
85.8836027
21
-170.061064
0
ARC
8
0
10
71.4516651
20
-98.0718153
40
8
50
108.6336387
51
194.0362421
0
ARC
8
0
10
158.2624619
20
-68.8
40
8
50
90
51
108.6336387
0
ARC
8
0
10
212.7875381
20
-68.8
40
8
50
71.3663613
51
90
0
ARC
8
0
10
299.5983349
20
-98.0718153
40
8
50
345.9637579
51
71.3663613
0
ARC
8
0
10
283.5603029
20
-162.2239433
40
8
50
281.5815104
51
345.9637579
0
ARC
8
0
10
213.288694
20
-176.625
40
8
50
270
51
281.5815104
0
ARC
8
0
10
157.761306
20
-176.625
40
8
50
258.4184896
51
270
0
ARC
8
0
10
87.4896971
20
-162.2239433
40
8
50
194.0362421
51
258.4184896
0
LINE
8
0
10
92.85
20
-157.15
11
107.15
21
-157.15
0
LINE
8
0
10
107.15
20
-157.15
11
107.15
21
-142.85
0
LINE
8
0
10
107.15
20
-142.85
11
92.85
21
-142.85
0
LINE
8
0
10
92.85
20
-142.85
11
92.85
21
-157.15
0
LINE
8
0
10
92.85
20
-138.1
11
107.15
21
-138.1
0
LINE
8
0
10
107.15
20
-138.1
11
107.15
21
-123.8
0
LINE
8
0
10
107.15
20
-123.8
11
92.85
21
-123.8
0
LINE
8
0
10
92.85
20
-123.8
11
92.85
21
-138.1
0
LINE
8
0
10
92.85
20
-119.05
11
107.15
21
-119.05
0
LINE
8
0
10
107.15
20
-119.05
11
107.15
21
-104.75
0
LINE
8
0
10
107.15
20
-104.75
11
92.85
21
-104.75
0
LINE
8
0
10
92.85
20
-104.75
11
92.85
21
-119.05
0
LINE
8
0
10
111.85
20
-143.15
11
126.15
21
-143.15
0
LINE
8
0
10
126.15
20
-143.15
11
126.15
21
-128.85
0
LINE
8
0
10
126.15
20
-128.85
11
111.85
21
-128.85
0
LINE
8
0
10
111.85
20
-128.85
11
111.85
21
-143.15
0
LINE
8
0
10
111.85
20
-124.1
11
126.15
21
-124.1
0
LINE
8
0
10
126.15
20
-124.1
11
126.15
21
-109.8
0
LINE
8
0
10
126.15
20
-109.8
11
111.85
21
-109.8
0
LINE
8
0
10
111.85
20
-109.8
11
111.85
21
-124.1
0
LINE
8
0
10
111.85
20
-105.05
11
126.15
21
-105.05
0
LINE
8
0
10
126.15
20
-105.05
11
126.15
21
-90.75
0
LINE
8
0
10
126.15
20
-90.75
11
111.85
21
-90.75
0
LINE
8
0
10
111.85
20
-90.75
11
111.85
21
-105.05
0
LINE
8
0
10
130.85
20
-133.15
11
145.15
21
-133.15
0
LINE
8
0
10
145.15
20
-133.15
11
145.15
21
-118.85
0
LINE
8
0
10
145.15
20
-118.85
11
130.85
21
-118.85
0
LINE
8
0
10
130.85
20
-118.85
11
130.85
21
-133.15
0
LINE
8
0
10
130.85
20
-114.1
11
145.15
21
-114.1
0
LINE
8
0
10
145.15
20
-114.1
11
145.15
21
-99.8
0
LINE
8
0
10
145.15
20
-99.8
11
130.85
21
-99.8
0
LINE
8
0
10
130.85
20
-99.8
11
130.85
21
-114.1
0
LINE
8
0
10
130.85
20
-95.05
11
145.15
21
-95.05
0
LINE
8
0
10
145.15
20
-95.05
11
145.15
21
-80.75
0
LINE
8
0
10
145.15
20
-80.75
11
130.85
21
-80.75
0
LINE
8
0
10
130.85
20
-80.75
11
130.85
21
-95.05
0
LINE
8
0
10
149.85
20
-140.15
11
164.15
21
-140.15
0
LINE
8
0
10
164.15
20
-140.15
11
164.15
21
-125.85
0
LINE
8
0
10
164.15
20
-125.85
11
149.85
21
-125.85
0
LINE
8
0
10
149.85
20
-125.85
11
149.85
21
-140.15
0
LINE
8
0
10
149.85
20
-121.1
11
164.15
21
-121.1
0
LINE
8
0
10
164.15
20
-121.1
11
164.15
21
-106.8
0
LINE
8
0
10
164.15
20
-106.8
11
149.85
21
-106.8
0
LINE
8
0
10
149.85
20
-106.8
11
149.85
21
-121.1
0
LINE
8
0
10
149.85
20
-102.05
11
164.15
21
-102.05
0
LINE
8
0
10
164.15
20
-102.05
11
164.15
21
-87.75
0
LINE
8
0
10
164.15
20
-87.75
11
149.85
21
-87.75
0
LINE
8
0
10
149.85
20
-87.75
11
149.85
21
-102.05
0
LINE
8
0
10
168.85
20
-144.15
11
183.15
21
-144.15
0
LINE
8
0
10
183.15
20
-144.15
11
183.15
21
-129.85
0
LINE
8
0
10
183.15
20
-129.85
11
168.85
21
-129.85
0
LINE
8
0
10
168.85
20
-129.85
11
168.85
21
-144.15
0
LINE
8
0
10
168.85
20
-125.1
11
183.15
21
-125.1
0
LINE
8
0
10
183.15
20
-125.1
11
183.15
21
-110.8
0
LINE
8
0
10
183.15
20
-110.8
11
168.85
21
-110.8
0
LINE
8
0
10
168.85
20
-110.8
11
168.85
21
-125.1
0
LINE
8
0
10
168.85
20
-106.05
11
183.15
21
-106.05
0
LINE
8
0
10
183.15
20
-106.05
11
183.15
21
-91.75
0
LINE
8
0
10
183.15
20
-91.75
11
168.85
21
-91.75
0
LINE
8
0
10
168.85
20
-91.75
11
168.85
21
-106.05
0
LINE
8
0
10
187.9
20
-163.2
11
202.2
21
-163.2
0
LINE
8
0
10
202.2
20
-163.2
11
202.2
21
-148.9
0
LINE
8
0
10
202.2
20
-148.9
11
187.9
21
-148.9
0
LINE
8
0
10
187.9
20
-148.9
11
187.9
21
-163.2
0
LINE
8
0
10
263.9
20
-157.15
11
278.2
21
-157.15
0
LINE
8
0
10
278.2
20
-157.15
11
278.2
21
-142.85
0
LINE
8
0
10
278.2
20
-142.85
11
263.9
21
-142.85
0
LINE
8
0
10
263.9
20
-142.85
11
263.9
21
-157.15
0
LINE
8
0
10
263.9
20
-138.1
11
278.2
21
-138.1
0
LINE
8
0
10
278.2
20
-138.1
11
278.2
21
-123.8
0
LINE
8
0
10
278.2
20
-123.8
11
263.9
21
-123.8
0
LINE
8
0
10
263.9
20
-123.8
11
263.9
21
-138.1
0
LINE
8
0
10
263.9
20
-119.05
11
278.2
21
-119.05
0
LINE
8
0
10
278.2
20
-119.05
11
278.2
21
-104.75
0
LINE
8
0
10
278.2
20
-104.75
11
263.9
21
-104.75
0
LINE
8
0
10
263.9
20
-104.75
11
263.9
21
-119.05
0
LINE
8
0
10
244.9
20
-143.15
11
259.2
21
-143.15
0
LINE
8
0
10
259.2
20
-143.15
11
259.2
21
-128.85
0
LINE
8
0
10
259.2
20
-128.85
11
244.9
21
-128.85
0
LINE
8
0
10
244.9
20
-128.85
11
244.9
21
-143.15
0
LINE
8
0
10
244.9
20
-124.1
11
259.2
21
-124.1
0
LINE
8
0
10
259.2
20
-124.1
11
259.2
21
-109.8
0
LINE
8
0
10
259.2
20
-109.8
11
244.9
21
-109.8
0
LINE
8
0
10
244.9
20
-109.8
11
244.9
21
-124.1
0
LINE
8
0
10
244.9
20
-105.05
11
259.2
21
-105.05
0
LINE
8
0
10
259.2
20
-105.05
11
259.2
21
-90.75
0
LINE
8
0
10
259.2
20
-90.75
11
244.9
21
-90.75
0
LINE
8
0
10
244.9
20
-90.75
11
244.9
21
-105.05
0
LINE
8
0
10
225.9
20
-133.15
11
240.2
21
-133.15
0
LINE
8
0
10
240.2
20
-133.15
11
240.2
21
-118.85
0
LINE
8
0
10
240.2
20
-118.85
11
225.9
21
-118.85
0
LINE
8
0
10
225.9
20
-118.85
11
225.9
21
-133.15
0
LINE
8
0
10
225.9
20
-114.1
11
240.2
21
-114.1
0
LINE
8
0
10
240.2
20
-114.1
11
240.2
21
-99.8
0
LINE
8
0
10
240.2
20
-99.8
11
225.9
21
-99.8
0
LINE
8
0
10
225.9
20
-99.8
11
225.9
21
-114.1
0
LINE
8
0
10
225.9
20
-95.05
11
240.2
21
-95.05
0
LINE
8
0
10
240.2
20
-95.05
11
240.2
21
-80.75
0
LINE
8
0
10
240.2
20
-80.75
11
225.9
21
-80.75
0
LINE
8
0
10
225.9
20
-80.75
11
225.9
21
-95.05
0
LINE
8
0
10
206.9
20
-140.15
11
221.2
21
-140.15
0
LINE
8
0
10
221.2
20
-140.15
11
221.2
21
-125.85
0
LINE
8
0
10
221.2
20
-125.85
11
206.9
21
-125.85
0
LINE
8
0
10
206.9
20
-125.85
11
206.9
21
-140.15
0
LINE
8
0
10
206.9
20
-121.1
11
221.2
21
-121.1
0
LINE
8
0
10
221.2
20
-121.1
11
221.2
21
-106.8
0
LINE
8
0
10
221.2
20
-106.8
11
206.9
21
-106.8
0
LINE
8
0
10
206.9
20
-106.8
11
206.9
21
-121.1
0
LINE
8
0
10
206.9
20
-102.05
11
221.2
21
-102.05
0
LINE
8
0
10
221.2
20
-102.05
11
221.2
21
-87.75
0
LINE
8
0
10
221.2
20
-87.75
11
206.9
21
-87.75
0
LINE
8
0
10
206.9
20
-87.75
11
206.9
21
-102.05
0
LINE
8
0
10
187.9
20
-144.15
11
202.2
21
-144.15
0
LINE
8
0
10
202.2
20
-144.15
11
202.2
21
-129.85
0
LINE
8
0
10
202.2
20
-129.85
11
187.9
21
-129.85
0
LINE
8
0
10
187.9
20
-129.85
11
187.9
21
-144.15
0
LINE
8
0
10
187.9
20
-125.1
11
202.2
21
-125.1
0
LINE
8
0
10
202.2
20
-125.1
11
202.2
21
-110.8
0
LINE
8
0
10
202.2
20
-110.8
11
187.9
21
-110.8
0
LINE
8
0
10
187.9
20
-110.8
11
187.9
21
-125.1
0
LINE
8
0
10
187.9
20
-106.05
11
202.2
21
-106.05
0
LINE
8
0
10
202.2
20
-106.05
11
202.2
21
-91.75
0
LINE
8
0
10
202.2
20
-91.75
11
187.9
21
-91.75
0
LINE
8
0
10
187.9
20
-91.75
11
187.9
21
-106.05
0
LINE
8
0
10
168.85
20
-163.2
11
183.15
21
-163.2
0
LINE
8
0
10
183.15
20
-163.2
11
183.15
21
-148.9
0
LINE
8
0
10
183.15
20
-148.9
11
168.85
21
-148.9
0
LINE
8
0
10
168.85
20
-148.9
11
168.85
21
-163.2
0
CIRCLE
8
0
10
80.95
20
-96.66
40
1.2
0
CIRCLE
8
0
10
290.1
20
-96.66
40
1.2
0
CIRCLE
8
0
10
151.285
20
-81.565
40
1.2
0
CIRCLE
8
0
10
219.765
20
-81.565
40
1.2
0
CIRCLE
8
0
10
162.715
20
-146.335
40
1.2
0
CIRCLE
8
0
10
208.335
20
-146.335
40
1.2
0
CIRCLE
8
0
10
252.2
20
-156.05
40
1.2
0
CIRCLE
8
0
10
118.85
20
-156.05
40
1.2
0
ENDSEC
0
EOF