0
SECTION
2
HEADER
9
$INSUNITS
70
4
0
ENDSEC
0
SECTION
2
TABLES
0
TABLE
2
LTYPE
0
LTYPE
72
65
70
64
2
CONTINUOUS
3
______
73
0
40
0
0
ENDTAB
0
TABLE
2
LAYER
0
ENDTAB
0
ENDSEC
0
SECTION
2
ENTITIES
0
LINE
8
0
10
79.728557
20
-164.1642281
11
63.690525
21
-100.0121001
0
LINE
8
0
10
68.8955395
20
-90.4911674
11
155.7063364
21
-61.2193521
0
LINE
8
0
10
158.2624619
20
-60.8
11
212.7875381
21
-60.8
0
LINE
8
0
10
215.3436636
20
-61.2193521
11
302.1544605
21
-90.4911674
0
LINE
8
0
10
307.359475
20
-100.0121001
11
291.321443
21
-164.1642281
0
LINE
8
0
10
285.1663973
20
-170.061064
11
214.8947884
21
-184.4621207
0
LINE
8
0
10
213.288694
20
-184.625
11
157.761306
21
-184.625
0
LINE
8
0
10
156.1552116
20
-184.4621207
11
85.8836027
21
-170.061064
0
ARC
8
0
10
71.4516651
20
-98.0718153
40
8
50
108.6336387
51
194.0362421
0
ARC
8
0
10
158.2624619
20
-68.8
40
8
50
90
51
108.6336387
0
ARC
8
0
10
212.7875381
20
-68.8
40
8
50
71.3663613
51
90
0
ARC
8
0
10
299.5983349
20
-98.0718153
40
8
50
345.9637579
51
71.3663613
0
ARC
8
0
10
283.5603029
20
-162.2239433
40
8
50
281.5815104
51
345.9637579
0
ARC
8
0
10
213.288694
20
-176.625
40
8
50
270
51
281.5815104
0
ARC
8
0
10
157.761306
20
-176.625
40
8
50
258.4184896
51
270
0
ARC
8
0
10
87.4896971
20
-162.2239433
40
8
50
194.0362421
51
258.4184896
0
LINE
8
0
10
91.5
20
-158.5
11
108.5
21
-158.5
0
LINE
8
0
10
108.5
20
-158.5
11
108.5
21
-141.5
0
LINE
8
0
10
108.5
20
-141.5
11
91.5
21
-141.5
0
LINE
8
0
10
91.5
20
-141.5
11
91.5
21
-158.5
0
LINE
8
0
10
91.5
20
-139.45
11
108.5
21
-139.45
0
LINE
8
0
10
108.5
20
-139.45
11
108.5
21
-122.45
0
LINE
8
0
10
108.5
20
-122.45
11
91.5
21
-122.45
0
LINE
8
0
10
91.5
20
-122.45
11
91.5
21
-139.45
0
LINE
8
0
10
91.5
20
-120.4
11
108.5
21
-120.4
0
LINE
8
0
10
108.5
20
-120.4
11
108.5
21
-103.4
0
LINE
8
0
10
108.5
20
-103.4
11
91.5
21
-103.4
0
LINE
8
0
10
91.5
20
-103.4
11
91.5
21
-120.4
0
LINE
8
0
10
110.5
20
-144.5
11
127.5
21
-144.5
0
LINE
8
0
10
127.5
20
-144.5
11
127.5
21
-127.5
0
LINE
8
0
10
127.5
20
-127.5
11
110.5
21
-127.5
0
LINE
8
0
10
110.5
20
-127.5
11
110.5
21
-144.5
0
LINE
8
0
10
110.5
20
-125.45
11
127.5
21
-125.45
0
LINE
8
0
10
127.5
20
-125.45
11
127.5
21
-108.45
0
LINE
8
0
10
127.5
20
-108.45
11
110.5
21
-108.45
0
LINE
8
0
10
110.5
20
-108.45
11
110.5
21
-125.45
0
LINE
8
0
10
110.5
20
-106.4
11
127.5
21
-106.4
0
LINE
8
0
10
127.5
20
-106.4
11
127.5
21
-89.4
0
LINE
8
0
10
127.5
20
-89.4
11
110.5
21
-89.4
0
LINE
8
0
10
110.5
20
-89.4
11
110.5
21
-106.4
0
LINE
8
0
10
129.5
20
-134.5
11
146.5
21
-134.5
0
LINE
8
0
10
146.5
20
-134.5
11
146.5
21
-117.5
0
LINE
8
0
10
146.5
20
-117.5
11
129.5
21
-117.5
0
LINE
8
0
10
129.5
20
-117.5
11
129.5
21
-134.5
0
LINE
8
0
10
129.5
20
-115.45
11
146.5
21
-115.45
0
LINE
8
0
10
146.5
20
-115.45
11
146.5
21
-98.45
0
LINE
8
0
10
146.5
20
-98.45
11
129.5
21
-98.45
0
LINE
8
0
10
129.5
20
-98.45
11
129.5
21
-115.45
0
LINE
8
0
10
129.5
20
-96.4
11
146.5
21
-96.4
0
LINE
8
0
10
146.5
20
-96.4
11
146.5
21
-79.4
0
LINE
8
0
10
146.5
20
-79.4
11
129.5
21
-79.4
0
LINE
8
0
10
129.5
20
-79.4
11
129.5
21
-96.4
0
LINE
8
0
10
148.5
20
-141.5
11
165.5
21
-141.5
0
LINE
8
0
10
165.5
20
-141.5
11
165.5
21
-124.5
0
LINE
8
0
10
165.5
20
-124.5
11
148.5
21
-124.5
0
LINE
8
0
10
148.5
20
-124.5
11
148.5
21
-141.5
0
LINE
8
0
10
148.5
20
-122.45
11
165.5
21
-122.45
0
LINE
8
0
10
165.5
20
-122.45
11
165.5
21
-105.45
0
LINE
8
0
10
165.5
20
-105.45
11
148.5
21
-105.45
0
LINE
8
0
10
148.5
20
-105.45
11
148.5
21
-122.45
0
LINE
8
0
10
148.5
20
-103.4
11
165.5
21
-103.4
0
LINE
8
0
10
165.5
20
-103.4
11
165.5
21
-86.4
0
LINE
8
0
10
165.5
20
-86.4
11
148.5
21
-86.4
0
LINE
8
0
10
148.5
20
-86.4
11
148.5
21
-103.4
0
LINE
8
0
10
167.5
20
-145.5
11
184.5
21
-145.5
0
LINE
8
0
10
184.5
20
-145.5
11
184.5
21
-128.5
0
LINE
8
0
10
184.5
20
-128.5
11
167.5
21
-128.5
0
LINE
8
0
10
167.5
20
-128.5
11
167.5
21
-145.5
0
LINE
8
0
10
167.5
20
-126.45
11
184.5
21
-126.45
0
LINE
8
0
10
184.5
20
-126.45
11
184.5
21
-109.45
0
LINE
8
0
10
184.5
20
-109.45
11
167.5
21
-109.45
0
LINE
8
0
10
167.5
20
-109.45
11
167.5
21
-126.45
0
LINE
8
0
10
167.5
20
-107.4
11
184.5
21
-107.4
0
LINE
8
0
10
184.5
20
-107.4
11
184.5
21
-90.4
0
LINE
8
0
10
184.5
20
-90.4
11
167.5
21
-90.4
0
LINE
8
0
10
167.5
20
-90.4
11
167.5
21
-107.4
0
LINE
8
0
10
186.55
20
-164.55
11
203.55
21
-164.55
0
LINE
8
0
10
203.55
20
-164.55
11
203.55
21
-147.55
0
LINE
8
0
10
203.55
20
-147.55
11
186.55
21
-147.55
0
LINE
8
0
10
186.55
20
-147.55
11
186.55
21
-164.55
0
LINE
8
0
10
262.55
20
-158.5
11
279.55
21
-158.5
0
LINE
8
0
10
279.55
20
-158.5
11
279.55
21
-141.5
0
LINE
8
0
10
279.55
20
-141.5
11
262.55
21
-141.5
0
LINE
8
0
10
262.55
20
-141.5
11
262.55
21
-158.5
0
LINE
8
0
10
262.55
20
-139.45
11
279.55
21
-139.45
0
LINE
8
0
10
279.55
20
-139.45
11
279.55
21
-122.45
0
LINE
8
0
10
279.55
20
-122.45
11
262.55
21
-122.45
0
LINE
8
0
10
262.55
20
-122.45
11
262.55
21
-139.45
0
LINE
8
0
10
262.55
20
-120.4
11
279.55
21
-120.4
0
LINE
8
0
10
279.55
20
-120.4
11
279.55
21
-103.4
0
LINE
8
0
10
279.55
20
-103.4
11
262.55
21
-103.4
0
LINE
8
0
10
262.55
20
-103.4
11
262.55
21
-120.4
0
LINE
8
0
10
243.55
20
-144.5
11
260.55
21
-144.5
0
LINE
8
0
10
260.55
20
-144.5
11
260.55
21
-127.5
0
LINE
8
0
10
260.55
20
-127.5
11
243.55
21
-127.5
0
LINE
8
0
10
243.55
20
-127.5
11
243.55
21
-144.5
0
LINE
8
0
10
243.55
20
-125.45
11
260.55
21
-125.45
0
LINE
8
0
10
260.55
20
-125.45
11
260.55
21
-108.45
0
LINE
8
0
10
260.55
20
-108.45
11
243.55
21
-108.45
0
LINE
8
0
10
243.55
20
-108.45
11
243.55
21
-125.45
0
LINE
8
0
10
243.55
20
-106.4
11
260.55
21
-106.4
0
LINE
8
0
10
260.55
20
-106.4
11
260.55
21
-89.4
0
LINE
8
0
10
260.55
20
-89.4
11
243.55
21
-89.4
0
LINE
8
0
10
243.55
20
-89.4
11
243.55
21
-106.4
0
LINE
8
0
10
224.55
20
-134.5
11
241.55
21
-134.5
0
LINE
8
0
10
241.55
20
-134.5
11
241.55
21
-117.5
0
LINE
8
0
10
241.55
20
-117.5
11
224.55
21
-117.5
0
LINE
8
0
10
224.55
20
-117.5
11
224.55
21
-134.5
0
LINE
8
0
10
224.55
20
-115.45
11
241.55
21
-115.45
0
LINE
8
0
10
241.55
20
-115.45
11
241.55
21
-98.45
0
LINE
8
0
10
241.55
20
-98.45
11
224.55
21
-98.45
0
LINE
8
0
10
224.55
20
-98.45
11
224.55
21
-115.45
0
LINE
8
0
10
224.55
20
-96.4
11
241.55
21
-96.4
0
LINE
8
0
10
241.55
20
-96.4
11
241.55
21
-79.4
0
LINE
8
0
10
241.55
20
-79.4
11
224.55
21
-79.4
0
LINE
8
0
10
224.55
20
-79.4
11
224.55
21
-96.4
0
LINE
8
0
10
205.55
20
-141.5
11
222.55
21
-141.5
0
LINE
8
0
10
222.55
20
-141.5
11
222.55
21
-124.5
0
LINE
8
0
10
222.55
20
-124.5
11
205.55
21
-124.5
0
LINE
8
0
10
205.55
20
-124.5
11
205.55
21
-141.5
0
LINE
8
0
10
205.55
20
-122.45
11
222.55
21
-122.45
0
LINE
8
0
10
222.55
20
-122.45
11
222.55
21
-105.45
0
LINE
8
0
10
222.55
20
-105.45
11
205.55
21
-105.45
0
LINE
8
0
10
205.55
20
-105.45
11
205.55
21
-122.45
0
LINE
8
0
10
205.55
20
-103.4
11
222.55
21
-103.4
0
LINE
8
0
10
222.55
20
-103.4
11
222.55
21
-86.4
0
LINE
8
0
10
222.55
20
-86.4
11
205.55
21
-86.4
0
LINE
8
0
10
205.55
20
-86.4
11
205.55
21
-103.4
0
LINE
8
0
10
186.55
20
-145.5
11
203.55
21
-145.5
0
LINE
8
0
10
203.55
20
-145.5
11
203.55
21
-128.5
0
LINE
8
0
10
203.55
20
-128.5
11
186.55
21
-128.5
0
LINE
8
0
10
186.55
20
-128.5
11
186.55
21
-145.5
0
LINE
8
0
10
186.55
20
-126.45
11
203.55
21
-126.45
0
LINE
8
0
10
203.55
20
-126.45
11
203.55
21
-109.45
0
LINE
8
0
10
203.55
20
-109.45
11
186.55
21
-109.45
0
LINE
8
0
10
186.55
20
-109.45
11
186.55
21
-126.45
0
LINE
8
0
10
186.55
20
-107.4
11
203.55
21
-107.4
0
LINE
8
0
10
203.55
20
-107.4
11
203.55
21
-90.4
0
LINE
8
0
10
203.55
20
-90.4
11
186.55
21
-90.4
0
LINE
8
0
10
186.55
20
-90.4
11
186.55
21
-107.4
0
LINE
8
0
10
167.5
20
-164.55
11
184.5
21
-164.55
0
LINE
8
0
10
184.5
20
-164.55
11
184.5
21
-147.55
0
LINE
8
0
10
184.5
20
-147.55
11
167.5
21
-147.55
0
LINE
8
0
10
167.5
20
-147.55
11
167.5
21
-164.55
0
CIRCLE
8
0
10
80.95
20
-96.66
40
2.3
0
CIRCLE
8
0
10
290.1
20
-96.66
40
2.3
0
CIRCLE
8
0
10
151.285
20
-81.565
40
2.3
0
CIRCLE
8
0
10
219.765
20
-81.565
40
2.3
0
CIRCLE
8
0
10
162.715
20
-146.335
40
2.3
0
CIRCLE
8
0
10
208.335
20
-146.335
40
2.3
0
CIRCLE
8
0
10
252.2
20
-156.05
40
2.3
0
CIRCLE
8
0
10
118.85
20
-156.05
40
2.3
0
ENDSEC
0
EOF