0
SECTION
2
HEADER
9
$INSUNITS
70
4
0
ENDSEC
0
SECTION
2
TABLES
0
TABLE
2
LTYPE
0
LTYPE
72
65
70
64
2
CONTINUOUS
3
______
73
0
40
0
0
ENDTAB
0
TABLE
2
LAYER
0
ENDTAB
0
ENDSEC
0
SECTION
2
ENTITIES
0
LINE
8
0
10
92.85
20
-157.15
11
107.15
21
-157.15
0
LINE
8
0
10
107.15
20
-157.15
11
107.15
21
-142.85
0
LINE
8
0
10
107.15
20
-142.85
11
92.85
21
-142.85
0
LINE
8
0
10
92.85
20
-142.85
11
92.85
21
-157.15
0
LINE
8
0
10
92.85
20
-138.1
11
107.15
21
-138.1
0
LINE
8
0
10
107.15
20
-138.1
11
107.15
21
-123.8
0
LINE
8
0
10
107.15
20
-123.8
11
92.85
21
-123.8
0
LINE
8
0
10
92.85
20
-123.8
11
92.85
21
-138.1
0
LINE
8
0
10
92.85
20
-119.05
11
107.15
21
-119.05
0
LINE
8
0
10
107.15
20
-119.05
11
107.15
21
-104.75
0
LINE
8
0
10
107.15
20
-104.75
11
92.85
21
-104.75
0
LINE
8
0
10
92.85
20
-104.75
11
92.85
21
-119.05
0
LINE
8
0
10
111.85
20
-143.15
11
126.15
21
-143.15
0
LINE
8
0
10
126.15
20
-143.15
11
126.15
21
-128.85
0
LINE
8
0
10
126.15
20
-128.85
11
111.85
21
-128.85
0
LINE
8
0
10
111.85
20
-128.85
11
111.85
21
-143.15
0
LINE
8
0
10
111.85
20
-124.1
11
126.15
21
-124.1
0
LINE
8
0
10
126.15
20
-124.1
11
126.15
21
-109.8
0
LINE
8
0
10
126.15
20
-109.8
11
111.85
21
-109.8
0
LINE
8
0
10
111.85
20
-109.8
11
111.85
21
-124.1
0
LINE
8
0
10
111.85
20
-105.05
11
126.15
21
-105.05
0
LINE
8
0
10
126.15
20
-105.05
11
126.15
21
-90.75
0
LINE
8
0
10
126.15
20
-90.75
11
111.85
21
-90.75
0
LINE
8
0
10
111.85
20
-90.75
11
111.85
21
-105.05
0
LINE
8
0
10
130.85
20
-133.15
11
145.15
21
-133.15
0
LINE
8
0
10
145.15
20
-133.15
11
145.15
21
-118.85
0
LINE
8
0
10
145.15
20
-118.85
11
130.85
21
-118.85
0
LINE
8
0
10
130.85
20
-118.85
11
130.85
21
-133.15
0
LINE
8
0
10
130.85
20
-114.1
11
145.15
21
-114.1
0
LINE
8
0
10
145.15
20
-114.1
11
145.15
21
-99.8
0
LINE
8
0
10
145.15
20
-99.8
11
130.85
21
-99.8
0
LINE
8
0
10
130.85
20
-99.8
11
130.85
21
-114.1
0
LINE
8
0
10
130.85
20
-95.05
11
145.15
21
-95.05
0
LINE
8
0
10
145.15
20
-95.05
11
145.15
21
-80.75
0
LINE
8
0
10
145.15
20
-80.75
11
130.85
21
-80.75
0
LINE
8
0
10
130.85
20
-80.75
11
130.85
21
-95.05
0
LINE
8
0
10
149.85
20
-140.15
11
164.15
21
-140.15
0
LINE
8
0
10
164.15
20
-140.15
11
164.15
21
-125.85
0
LINE
8
0
10
164.15
20
-125.85
11
149.85
21
-125.85
0
LINE
8
0
10
149.85
20
-125.85
11
149.85
21
-140.15
0
LINE
8
0
10
149.85
20
-121.1
11
164.15
21
-121.1
0
LINE
8
0
10
164.15
20
-121.1
11
164.15
21
-106.8
0
LINE
8
0
10
164.15
20
-106.8
11
149.85
21
-106.8
0
LINE
8
0
10
149.85
20
-106.8
11
149.85
21
-121.1
0
LINE
8
0
10
149.85
20
-102.05
11
164.15
21
-102.05
0
LINE
8
0
10
164.15
20
-102.05
11
164.15
21
-87.75
0
LINE
8
0
10
164.15
20
-87.75
11
149.85
21
-87.75
0
LINE
8
0
10
149.85
20
-87.75
11
149.85
21
-102.05
0
LINE
8
0
10
168.85
20
-144.15
11
183.15
21
-144.15
0
LINE
8
0
10
183.15
20
-144.15
11
183.15
21
-129.85
0
LINE
8
0
10
183.15
20
-129.85
11
168.85
21
-129.85
0
LINE
8
0
10
168.85
20
-129.85
11
168.85
21
-144.15
0
LINE
8
0
10
168.85
20
-125.1
11
183.15
21
-125.1
0
LINE
8
0
10
183.15
20
-125.1
11
183.15
21
-110.8
0
LINE
8
0
10
183.15
20
-110.8
11
168.85
21
-110.8
0
LINE
8
0
10
168.85
20
-110.8
11
168.85
21
-125.1
0
LINE
8
0
10
168.85
20
-106.05
11
183.15
21
-106.05
0
LINE
8
0
10
183.15
20
-106.05
11
183.15
21
-91.75
0
LINE
8
0
10
183.15
20
-91.75
11
168.85
21
-91.75
0
LINE
8
0
10
168.85
20
-91.75
11
168.85
21
-106.05
0
LINE
8
0
10
187.9
20
-163.2
11
202.2
21
-163.2
0
LINE
8
0
10
202.2
20
-163.2
11
202.2
21
-148.9
0
LINE
8
0
10
202.2
20
-148.9
11
187.9
21
-148.9
0
LINE
8
0
10
187.9
20
-148.9
11
187.9
21
-163.2
0
LINE
8
0
10
263.9
20
-157.15
11
278.2
21
-157.15
0
LINE
8
0
10
278.2
20
-157.15
11
278.2
21
-142.85
0
LINE
8
0
10
278.2
20
-142.85
11
263.9
21
-142.85
0
LINE
8
0
10
263.9
20
-142.85
11
263.9
21
-157.15
0
LINE
8
0
10
263.9
20
-138.1
11
278.2
21
-138.1
0
LINE
8
0
10
278.2
20
-138.1
11
278.2
21
-123.8
0
LINE
8
0
10
278.2
20
-123.8
11
263.9
21
-123.8
0
LINE
8
0
10
263.9
20
-123.8
11
263.9
21
-138.1
0
LINE
8
0
10
263.9
20
-119.05
11
278.2
21
-119.05
0
LINE
8
0
10
278.2
20
-119.05
11
278.2
21
-104.75
0
LINE
8
0
10
278.2
20
-104.75
11
263.9
21
-104.75
0
LINE
8
0
10
263.9
20
-104.75
11
263.9
21
-119.05
0
LINE
8
0
10
244.9
20
-143.15
11
259.2
21
-143.15
0
LINE
8
0
10
259.2
20
-143.15
11
259.2
21
-128.85
0
LINE
8
0
10
259.2
20
-128.85
11
244.9
21
-128.85
0
LINE
8
0
10
244.9
20
-128.85
11
244.9
21
-143.15
0
LINE
8
0
10
244.9
20
-124.1
11
259.2
21
-124.1
0
LINE
8
0
10
259.2
20
-124.1
11
259.2
21
-109.8
0
LINE
8
0
10
259.2
20
-109.8
11
244.9
21
-109.8
0
LINE
8
0
10
244.9
20
-109.8
11
244.9
21
-124.1
0
LINE
8
0
10
244.9
20
-105.05
11
259.2
21
-105.05
0
LINE
8
0
10
259.2
20
-105.05
11
259.2
21
-90.75
0
LINE
8
0
10
259.2
20
-90.75
11
244.9
21
-90.75
0
LINE
8
0
10
244.9
20
-90.75
11
244.9
21
-105.05
0
LINE
8
0
10
225.9
20
-133.15
11
240.2
21
-133.15
0
LINE
8
0
10
240.2
20
-133.15
11
240.2
21
-118.85
0
LINE
8
0
10
240.2
20
-118.85
11
225.9
21
-118.85
0
LINE
8
0
10
225.9
20
-118.85
11
225.9
21
-133.15
0
LINE
8
0
10
225.9
20
-114.1
11
240.2
21
-114.1
0
LINE
8
0
10
240.2
20
-114.1
11
240.2
21
-99.8
0
LINE
8
0
10
240.2
20
-99.8
11
225.9
21
-99.8
0
LINE
8
0
10
225.9
20
-99.8
11
225.9
21
-114.1
0
LINE
8
0
10
225.9
20
-95.05
11
240.2
21
-95.05
0
LINE
8
0
10
240.2
20
-95.05
11
240.2
21
-80.75
0
LINE
8
0
10
240.2
20
-80.75
11
225.9
21
-80.75
0
LINE
8
0
10
225.9
20
-80.75
11
225.9
21
-95.05
0
LINE
8
0
10
206.9
20
-140.15
11
221.2
21
-140.15
0
LINE
8
0
10
221.2
20
-140.15
11
221.2
21
-125.85
0
LINE
8
0
10
221.2
20
-125.85
11
206.9
21
-125.85
0
LINE
8
0
10
206.9
20
-125.85
11
206.9
21
-140.15
0
LINE
8
0
10
206.9
20
-121.1
11
221.2
21
-121.1
0
LINE
8
0
10
221.2
20
-121.1
11
221.2
21
-106.8
0
LINE
8
0
10
221.2
20
-106.8
11
206.9
21
-106.8
0
LINE
8
0
10
206.9
20
-106.8
11
206.9
21
-121.1
0
LINE
8
0
10
206.9
20
-102.05
11
221.2
21
-102.05
0
LINE
8
0
10
221.2
20
-102.05
11
221.2
21
-87.75
0
LINE
8
0
10
221.2
20
-87.75
11
206.9
21
-87.75
0
LINE
8
0
10
206.9
20
-87.75
11
206.9
21
-102.05
0
LINE
8
0
10
187.9
20
-144.15
11
202.2
21
-144.15
0
LINE
8
0
10
202.2
20
-144.15
11
202.2
21
-129.85
0
LINE
8
0
10
202.2
20
-129.85
11
187.9
21
-129.85
0
LINE
8
0
10
187.9
20
-129.85
11
187.9
21
-144.15
0
LINE
8
0
10
187.9
20
-125.1
11
202.2
21
-125.1
0
LINE
8
0
10
202.2
20
-125.1
11
202.2
21
-110.8
0
LINE
8
0
10
202.2
20
-110.8
11
187.9
21
-110.8
0
LINE
8
0
10
187.9
20
-110.8
11
187.9
21
-125.1
0
LINE
8
0
10
187.9
20
-106.05
11
202.2
21
-106.05
0
LINE
8
0
10
202.2
20
-106.05
11
202.2
21
-91.75
0
LINE
8
0
10
202.2
20
-91.75
11
187.9
21
-91.75
0
LINE
8
0
10
187.9
20
-91.75
11
187.9
21
-106.05
0
LINE
8
0
10
168.85
20
-163.2
11
183.15
21
-163.2
0
LINE
8
0
10
183.15
20
-163.2
11
183.15
21
-148.9
0
LINE
8
0
10
183.15
20
-148.9
11
168.85
21
-148.9
0
LINE
8
0
10
168.85
20
-148.9
11
168.85
21
-163.2
0
ENDSEC
0
EOF